<svg width="48" height="48" viewBox="0 0 48 48" fill="none" xmlns="http://www.w3.org/2000/svg">
<g clip-path="url(#clip0_103_2)">
<path d="M8.50001 0.599979H39.5C40.6165 0.598927 41.7223 0.818068 42.7541 1.24486C43.7858 1.67165 44.7233 2.29772 45.5128 3.08723C46.3023 3.87673 46.9283 4.81418 47.3551 5.84593C47.7819 6.87767 48.0011 7.98345 48 9.09998V38.9C48.0011 40.0165 47.7819 41.1223 47.3551 42.154C46.9283 43.1858 46.3023 44.1232 45.5128 44.9127C44.7233 45.7023 43.7858 46.3283 42.7541 46.7551C41.7223 47.1819 40.6165 47.401 39.5 47.4H8.50001C7.38347 47.401 6.27769 47.1819 5.24595 46.7551C4.21421 46.3283 3.27676 45.7023 2.48725 44.9127C1.69774 44.1232 1.07168 43.1858 0.644885 42.154C0.218092 41.1223 -0.00104857 40.0165 3.77215e-06 38.9V9.09998C-0.00104857 7.98345 0.218092 6.87767 0.644885 5.84593C1.07168 4.81418 1.69774 3.87673 2.48725 3.08723C3.27676 2.29772 4.21421 1.67165 5.24595 1.24486C6.27769 0.818068 7.38347 0.598927 8.50001 0.599979V0.599979Z" fill="#00005B"/>
<path d="M19.28 28.6H11.84L10.32 33.32C10.303 33.4057 10.2546 33.4819 10.1843 33.5337C10.114 33.5855 10.0269 33.6092 9.94002 33.6H6.18002C5.96002 33.6 5.90002 33.48 5.96002 33.24L12.4 14.78C12.46 14.58 12.52 14.4 12.6 14.16C12.6805 13.7314 12.7207 13.2961 12.72 12.86C12.714 12.8099 12.7272 12.7594 12.7569 12.7186C12.7865 12.6778 12.8305 12.6497 12.88 12.64H18.06C18.2 12.64 18.3 12.7 18.32 12.8L25.62 33.3C25.68 33.52 25.62 33.62 25.42 33.62H21.24C21.1693 33.6268 21.0985 33.6085 21.04 33.5683C20.9815 33.528 20.939 33.4685 20.92 33.4L19.28 28.6ZM13 24.62H18.08C17.96 24.2 17.8 23.7 17.62 23.18C17.44 22.66 17.26 22.06 17.08 21.46C16.9 20.86 16.7 20.24 16.5 19.62C16.3 19 16.12 18.42 15.96 17.84C15.8 17.26 15.66 16.76 15.52 16.28H15.48C15.3003 17.1517 15.0733 18.013 14.8 18.86C14.5 19.82 14.2 20.82 13.88 21.82C13.62 22.84 13.3 23.78 13 24.62Z" fill="#9999FF"/>
<path d="M37.48 26.7599H31.14C31.2156 27.3911 31.4272 27.9983 31.76 28.5399C32.1134 29.079 32.6227 29.4976 33.22 29.7399C34.0284 30.0856 34.9009 30.2561 35.78 30.2399C36.4784 30.2271 37.1743 30.1535 37.86 30.0199C38.4699 29.9401 39.0677 29.7856 39.64 29.5599C39.74 29.4799 39.8 29.5199 39.8 29.7199V32.7799C39.7965 32.8612 39.783 32.9418 39.76 33.0199C39.7238 33.076 39.6761 33.1238 39.62 33.1599C38.9803 33.4408 38.3086 33.6423 37.62 33.7599C36.6844 33.9398 35.7325 34.0203 34.78 33.9999C33.26 33.9999 31.98 33.7599 30.94 33.2999C29.9613 32.8751 29.0976 32.2239 28.42 31.3999C27.7868 30.6294 27.3172 29.7379 27.04 28.7799C26.4539 26.7846 26.4818 24.6592 27.12 22.6799C27.4389 21.6785 27.9482 20.7482 28.62 19.9399C29.2814 19.1407 30.1066 18.4928 31.04 18.0399C31.98 17.5799 33.1 17.4199 34.38 17.4199C35.4464 17.3952 36.5051 17.6069 37.48 18.0399C38.2993 18.3951 39.02 18.9442 39.58 19.6399C40.1116 20.323 40.5179 21.095 40.78 21.9199C41.0343 22.7082 41.1626 23.5316 41.16 24.3599C41.16 24.8399 41.14 25.2599 41.12 25.6399C41.1 26.0199 41.06 26.2999 41.04 26.4799C41.0312 26.5492 40.9983 26.6132 40.9471 26.6607C40.896 26.7082 40.8297 26.7363 40.76 26.7399C40.64 26.7399 40.42 26.7599 40.1 26.7799C39.7149 26.8236 39.3275 26.8437 38.94 26.8399C38.48 26.8399 38 26.7599 37.48 26.7599ZM31.14 23.8399H35.36C35.88 23.8399 36.26 23.8399 36.5 23.8199C36.6643 23.8062 36.8226 23.7512 36.96 23.6599V23.4599C36.9608 23.2083 36.9202 22.9583 36.84 22.7199C36.6649 22.1727 36.3166 21.6972 35.8476 21.3653C35.3785 21.0334 34.8143 20.863 34.24 20.8799C33.6972 20.8495 33.1572 20.9768 32.6852 21.2465C32.2132 21.5162 31.8293 21.9168 31.58 22.3999C31.3466 22.849 31.1975 23.3371 31.14 23.8399V23.8399Z" fill="#9999FF"/>
</g>
<defs>
<clipPath id="clip0_103_2">
<rect width="48" height="46.8" fill="white" transform="translate(0 0.599976)"/>
</clipPath>
</defs>
</svg>
