<svg width="48" height="48" viewBox="0 0 48 48" fill="none" xmlns="http://www.w3.org/2000/svg">
<g clip-path="url(#clip0_5_58)">
<path d="M8.5 0.675053H39.5C40.6165 0.674 41.7223 0.893141 42.7541 1.31993C43.7858 1.74673 44.7232 2.37279 45.5128 3.1623C46.3023 3.95181 46.9283 4.88926 47.3551 5.921C47.7819 6.95274 48.0011 8.05852 48 9.17506V38.9751C48.0011 40.0916 47.7819 41.1974 47.3551 42.2291C46.9283 43.2609 46.3023 44.1983 45.5128 44.9878C44.7232 45.7773 43.7858 46.4034 42.7541 46.8302C41.7223 47.257 40.6165 47.4761 39.5 47.4751H8.5C7.38347 47.4761 6.27769 47.257 5.24595 46.8302C4.21421 46.4034 3.27676 45.7773 2.48725 44.9878C1.69774 44.1983 1.07168 43.2609 0.644884 42.2291C0.218092 41.1974 -0.00104857 40.0916 3.77215e-06 38.9751V9.17506C-0.00104857 8.05852 0.218092 6.95274 0.644884 5.921C1.07168 4.88926 1.69774 3.95181 2.48725 3.1623C3.27676 2.37279 4.21421 1.74673 5.24595 1.31993C6.27769 0.893141 7.38347 0.674 8.5 0.675053V0.675053Z" fill="#000B1D"/>
<path d="M19 39.0751C21.7614 39.0751 24 36.8365 24 34.0751V29.0751H19C16.2386 29.0751 14 31.3136 14 34.0751C14 36.8365 16.2386 39.0751 19 39.0751Z" fill="#0ACF83"/>
<path d="M14 24.0751C14 21.3136 16.2386 19.0751 19 19.0751H24V29.0751H19C16.2386 29.0751 14 26.8365 14 24.0751Z" fill="#A259FF"/>
<path d="M14 14.0751C14 11.3136 16.2386 9.07507 19 9.07507H24V19.0751H19C16.2386 19.0751 14 16.8365 14 14.0751Z" fill="#F24E1E"/>
<path d="M24 9.07507H29C31.7614 9.07507 34 11.3136 34 14.0751C34 16.8365 31.7614 19.0751 29 19.0751H24V9.07507Z" fill="#FF7262"/>
<path d="M34 24.0751C34 26.8365 31.7614 29.0751 29 29.0751C26.2386 29.0751 24 26.8365 24 24.0751C24 21.3136 26.2386 19.0751 29 19.0751C31.7614 19.0751 34 21.3136 34 24.0751Z" fill="#1ABCFE"/>
</g>
<defs>
<clipPath id="clip0_5_58">
<rect width="48" height="46.8" fill="white" transform="translate(0 0.675049)"/>
</clipPath>
</defs>
</svg>
