<svg width="48" height="48" viewBox="0 0 48 48" fill="none" xmlns="http://www.w3.org/2000/svg">
<g clip-path="url(#clip0_103_38)">
<path d="M8.50001 0.675053H39.5C40.6165 0.674 41.7223 0.893141 42.7541 1.31993C43.7858 1.74673 44.7233 2.37279 45.5128 3.1623C46.3023 3.95181 46.9283 4.88926 47.3551 5.921C47.7819 6.95274 48.0011 8.05852 48 9.17505V38.9751C48.0011 40.0916 47.7819 41.1974 47.3551 42.2291C46.9283 43.2609 46.3023 44.1983 45.5128 44.9878C44.7233 45.7773 43.7858 46.4034 42.7541 46.8302C41.7223 47.257 40.6165 47.4761 39.5 47.4751H8.50001C7.38347 47.4761 6.27769 47.257 5.24595 46.8302C4.21421 46.4034 3.27676 45.7773 2.48725 44.9878C1.69774 44.1983 1.07168 43.2609 0.644885 42.2291C0.218092 41.1974 -0.00104857 40.0916 3.77215e-06 38.9751V9.17505C-0.00104857 8.05852 0.218092 6.95274 0.644885 5.921C1.07168 4.88926 1.69774 3.95181 2.48725 3.1623C3.27676 2.37279 4.21421 1.74673 5.24595 1.31993C6.27769 0.893141 7.38347 0.674 8.50001 0.675053V0.675053Z" fill="#330000"/>
<path d="M23.26 28.755H15.82L14.3 33.455C14.283 33.5407 14.2346 33.6169 14.1643 33.6687C14.094 33.7205 14.0069 33.7442 13.92 33.735H10.16C9.94 33.735 9.88 33.615 9.94 33.375L16.38 14.835C16.44 14.635 16.5 14.415 16.58 14.175C16.6605 13.7464 16.7007 13.3112 16.7 12.875C16.694 12.8249 16.7072 12.7744 16.7368 12.7336C16.7665 12.6928 16.8105 12.6648 16.86 12.655H22.04C22.2 12.655 22.28 12.715 22.3 12.815L29.6 33.415C29.66 33.635 29.6 33.735 29.4 33.735H25.22C25.1493 33.7418 25.0785 33.7235 25.02 33.6833C24.9614 33.6431 24.919 33.5835 24.9 33.515L23.26 28.755ZM16.98 24.695H22.06C21.94 24.275 21.78 23.775 21.6 23.255C21.42 22.735 21.24 22.135 21.06 21.535C20.88 20.935 20.68 20.315 20.48 19.695C20.28 19.075 20.1 18.495 19.94 17.915C19.78 17.335 19.64 16.835 19.5 16.355H19.46C19.2803 17.2267 19.0533 18.088 18.78 18.935C18.48 19.895 18.18 20.895 17.86 21.895C17.58 22.915 17.28 23.855 16.98 24.695V24.695Z" fill="#FF9A00"/>
<path d="M33.96 16.075C33.6317 16.0822 33.3053 16.024 32.9997 15.9038C32.6941 15.7837 32.4155 15.6039 32.18 15.375C31.7218 14.874 31.4778 14.2136 31.5 13.535C31.4882 13.2044 31.5462 12.875 31.6703 12.5683C31.7944 12.2616 31.9817 11.9845 32.22 11.755C32.7008 11.3006 33.3386 11.0498 34 11.055C34.78 11.055 35.38 11.295 35.82 11.755C36.2631 12.24 36.4998 12.8784 36.48 13.535C36.4922 13.8729 36.4366 14.2099 36.3163 14.5259C36.1961 14.8419 36.0138 15.1307 35.78 15.375C35.5444 15.6151 35.26 15.8018 34.946 15.9225C34.632 16.0433 34.2958 16.0953 33.96 16.075V16.075ZM31.72 33.435V18.035C31.72 17.835 31.8 17.755 31.98 17.755H35.94C36.12 17.755 36.2 17.855 36.2 18.035V33.435C36.2 33.655 36.12 33.755 35.94 33.755H32.02C31.978 33.7585 31.9357 33.7524 31.8964 33.7372C31.857 33.7221 31.8216 33.6982 31.7928 33.6675C31.7639 33.6367 31.7424 33.5998 31.7298 33.5596C31.7172 33.5193 31.7139 33.4767 31.72 33.435V33.435Z" fill="#FF9A00"/>
</g>
<defs>
<clipPath id="clip0_103_38">
<rect width="48" height="46.8" fill="white" transform="translate(0 0.675049)"/>
</clipPath>
</defs>
</svg>
