<svg width="48" height="48" viewBox="0 0 48 48" fill="none" xmlns="http://www.w3.org/2000/svg">
<g clip-path="url(#clip0_103_14)">
<path d="M8.50001 0.675053H39.5C40.6165 0.674 41.7223 0.893141 42.7541 1.31993C43.7858 1.74673 44.7233 2.37279 45.5128 3.1623C46.3023 3.95181 46.9283 4.88926 47.3551 5.921C47.7819 6.95274 48.0011 8.05852 48 9.17505V38.9751C48.0011 40.0916 47.7819 41.1974 47.3551 42.2291C46.9283 43.2609 46.3023 44.1983 45.5128 44.9878C44.7233 45.7773 43.7858 46.4034 42.7541 46.8302C41.7223 47.257 40.6165 47.4761 39.5 47.4751H8.50001C7.38347 47.4761 6.27769 47.257 5.24595 46.8302C4.21421 46.4034 3.27676 45.7773 2.48725 44.9878C1.69774 44.1983 1.07168 43.2609 0.644885 42.2291C0.218092 41.1974 -0.00104857 40.0916 3.77215e-06 38.9751V9.17505C-0.00104857 8.05852 0.218092 6.95274 0.644885 5.921C1.07168 4.88926 1.69774 3.95181 2.48725 3.1623C3.27676 2.37279 4.21421 1.74673 5.24595 1.31993C6.27769 0.893141 7.38347 0.674 8.50001 0.675053V0.675053Z" fill="#001E36"/>
<path d="M10.8 33.4951V12.9151C10.8 12.7751 10.86 12.6951 11 12.6951C11.34 12.6951 11.66 12.6951 12.12 12.6751C12.58 12.6551 13.1 12.6551 13.64 12.6351C14.18 12.6151 14.76 12.6151 15.38 12.5951C16 12.5751 16.6 12.5751 17.2 12.5751C18.84 12.5751 20.2 12.7751 21.32 13.1951C22.324 13.536 23.2395 14.0962 24 14.8351C24.6445 15.4816 25.1424 16.2592 25.46 17.1151C25.7627 17.9486 25.9184 18.8283 25.92 19.7151C25.92 21.4351 25.52 22.8551 24.72 23.9751C23.9163 25.0935 22.7942 25.9438 21.5 26.4151C20.14 26.9151 18.64 27.0951 17 27.0951C16.52 27.0951 16.2 27.0951 16 27.0751C15.8 27.0551 15.52 27.0551 15.14 27.0551V33.4751C15.1445 33.508 15.1423 33.5415 15.1335 33.5735C15.1248 33.6056 15.1098 33.6355 15.0892 33.6616C15.0687 33.6878 15.0432 33.7095 15.0141 33.7255C14.985 33.7416 14.953 33.7516 14.92 33.7551H11.04C10.88 33.7551 10.8 33.6751 10.8 33.4951ZM15.16 16.5551V23.2751C15.44 23.2951 15.7 23.3151 15.94 23.3151H17C17.7808 23.316 18.5568 23.1945 19.3 22.9551C19.9376 22.7676 20.5072 22.3994 20.94 21.8951C21.36 21.3951 21.56 20.7151 21.56 19.8351C21.5788 19.2101 21.4193 18.5927 21.1 18.0551C20.7665 17.5358 20.2761 17.1364 19.7 16.9151C18.9492 16.621 18.1458 16.4848 17.34 16.5151C16.82 16.5151 16.36 16.5151 15.98 16.5351C15.7066 16.5172 15.4322 16.5239 15.16 16.5551V16.5551Z" fill="#31A8FF"/>
<path d="M38.4 22.055C37.7962 21.737 37.1495 21.5079 36.48 21.375C35.7448 21.2085 34.9938 21.1214 34.24 21.115C33.8353 21.1011 33.4307 21.1483 33.04 21.255C32.7909 21.3069 32.5699 21.4494 32.42 21.655C32.319 21.8173 32.2637 22.0039 32.26 22.195C32.2693 22.3853 32.3394 22.5676 32.46 22.715C32.6496 22.9374 32.8805 23.1208 33.14 23.255C33.6 23.495 34.08 23.715 34.56 23.915C35.6406 24.2788 36.6744 24.7689 37.64 25.375C38.2968 25.788 38.84 26.3587 39.22 27.035C39.5414 27.6731 39.6995 28.3809 39.68 29.095C39.6962 30.0403 39.4242 30.9682 38.9 31.755C38.3422 32.5534 37.5638 33.172 36.66 33.535C35.68 33.955 34.48 34.175 33.04 34.175C32.127 34.1787 31.2158 34.0916 30.32 33.915C29.6146 33.7931 28.9286 33.5779 28.28 33.275C28.2103 33.2401 28.1523 33.1854 28.1132 33.1179C28.0741 33.0504 28.0556 32.9729 28.06 32.895V29.415C28.0583 29.3809 28.0646 29.3468 28.0785 29.3155C28.0924 29.2842 28.1135 29.2567 28.14 29.235C28.1682 29.2186 28.2009 29.2117 28.2333 29.2153C28.2657 29.2189 28.2961 29.2328 28.32 29.255C29.0904 29.7092 29.9272 30.0399 30.8 30.235C31.5706 30.4355 32.3638 30.5364 33.16 30.535C33.92 30.535 34.46 30.435 34.82 30.255C34.9806 30.1809 35.1167 30.0624 35.2123 29.9137C35.308 29.7649 35.3592 29.5919 35.36 29.415C35.36 29.135 35.2 28.875 34.88 28.615C34.56 28.355 33.9 28.055 32.92 27.675C31.9147 27.3208 30.9599 26.8367 30.08 26.235C29.4533 25.7884 28.9341 25.2076 28.56 24.535C28.2408 23.9034 28.0828 23.2026 28.1 22.495C28.103 21.6416 28.338 20.8051 28.78 20.075C29.2881 19.2722 30.0173 18.6332 30.88 18.235C31.82 17.755 33 17.535 34.42 17.535C35.2499 17.5353 36.0788 17.5954 36.9 17.715C37.4905 17.7949 38.0685 17.9495 38.62 18.175C38.7079 18.2062 38.7798 18.2709 38.82 18.355C38.8431 18.4331 38.8565 18.5137 38.86 18.595V21.855C38.8603 21.8939 38.8514 21.9323 38.8341 21.9671C38.8167 22.0018 38.7913 22.032 38.76 22.055C38.6437 22.0969 38.5164 22.0969 38.4 22.055Z" fill="#31A8FF"/>
</g>
<defs>
<clipPath id="clip0_103_14">
<rect width="48" height="46.8" fill="white" transform="translate(0 0.675049)"/>
</clipPath>
</defs>
</svg>
